<svg width="1110" height="45" viewBox="0 0 1110 45" fill="none" xmlns="http://www.w3.org/2000/svg">
<rect x="941" y="4" width="168" height="38" rx="19" fill="white" stroke="#66C05D" stroke-width="2"/>
<path d="M975.812 23.3447C975.812 24.32 975.647 25.1722 975.319 25.9014C974.991 26.626 974.526 27.1797 973.925 27.5625C973.323 27.9453 972.621 28.1367 971.819 28.1367C971.035 28.1367 970.34 27.9453 969.734 27.5625C969.128 27.1751 968.657 26.626 968.319 25.915C967.987 25.1995 967.816 24.3724 967.807 23.4336V22.7158C967.807 21.7588 967.973 20.9134 968.306 20.1797C968.638 19.446 969.108 18.8854 969.714 18.498C970.325 18.1061 971.022 17.9102 971.806 17.9102C972.603 17.9102 973.305 18.1038 973.911 18.4912C974.522 18.874 974.991 19.4323 975.319 20.166C975.647 20.8952 975.812 21.7451 975.812 22.7158V23.3447ZM974.506 22.7021C974.506 21.5218 974.269 20.6172 973.795 19.9883C973.321 19.3548 972.658 19.0381 971.806 19.0381C970.976 19.0381 970.322 19.3548 969.844 19.9883C969.37 20.6172 969.126 21.4922 969.112 22.6133V23.3447C969.112 24.4886 969.352 25.3887 969.83 26.0449C970.313 26.6966 970.976 27.0225 971.819 27.0225C972.667 27.0225 973.323 26.7148 973.788 26.0996C974.253 25.4798 974.492 24.5934 974.506 23.4404V22.7021ZM980.829 21.0273C981.759 21.0273 982.502 21.3395 983.058 21.9639C983.618 22.5837 983.898 23.4017 983.898 24.418V24.5342C983.898 25.2314 983.764 25.8558 983.495 26.4072C983.226 26.9541 982.839 27.3802 982.333 27.6855C981.832 27.9863 981.253 28.1367 980.597 28.1367C979.603 28.1367 978.803 27.8063 978.197 27.1455C977.591 26.4801 977.288 25.5892 977.288 24.4727V23.8574C977.288 22.3034 977.575 21.0684 978.149 20.1523C978.728 19.2363 979.58 18.6781 980.706 18.4775C981.344 18.3636 981.775 18.2246 981.998 18.0605C982.221 17.8965 982.333 17.6709 982.333 17.3838H983.372C983.372 17.9535 983.242 18.3978 982.982 18.7168C982.727 19.0358 982.317 19.2614 981.752 19.3936L980.809 19.6055C980.057 19.7832 979.492 20.084 979.113 20.5078C978.74 20.9271 978.496 21.4876 978.382 22.1895C979.052 21.4147 979.868 21.0273 980.829 21.0273ZM980.583 22.0664C979.963 22.0664 979.471 22.276 979.106 22.6953C978.742 23.11 978.56 23.6865 978.56 24.4248V24.5342C978.56 25.3271 978.742 25.9561 979.106 26.4209C979.476 26.8812 979.972 27.1113 980.597 27.1113C981.226 27.1113 981.722 26.8789 982.087 26.4141C982.451 25.9492 982.634 25.2702 982.634 24.377C982.634 23.6797 982.449 23.1214 982.08 22.7021C981.715 22.2783 981.216 22.0664 980.583 22.0664ZM991.445 24.3838C991.445 25.5094 991.188 26.4163 990.673 27.1045C990.158 27.7926 989.461 28.1367 988.581 28.1367C987.683 28.1367 986.977 27.8519 986.462 27.2822V30.8438H985.197V20.6035H986.353L986.414 21.4238C986.929 20.7858 987.645 20.4668 988.561 20.4668C989.449 20.4668 990.151 20.8018 990.666 21.4717C991.186 22.1416 991.445 23.0736 991.445 24.2676V24.3838ZM990.181 24.2402C990.181 23.4062 990.003 22.7477 989.647 22.2646C989.292 21.7816 988.804 21.54 988.185 21.54C987.419 21.54 986.845 21.8796 986.462 22.5586V26.0928C986.84 26.7673 987.419 27.1045 988.198 27.1045C988.804 27.1045 989.285 26.8652 989.641 26.3867C990.001 25.9036 990.181 25.1882 990.181 24.2402ZM997.625 28C997.552 27.8542 997.493 27.5944 997.447 27.2207C996.859 27.8314 996.158 28.1367 995.342 28.1367C994.613 28.1367 994.013 27.9316 993.544 27.5215C993.079 27.1068 992.847 26.5827 992.847 25.9492C992.847 25.179 993.138 24.582 993.722 24.1582C994.31 23.7298 995.134 23.5156 996.196 23.5156H997.427V22.9346C997.427 22.4925 997.295 22.1416 997.03 21.8818C996.766 21.6175 996.376 21.4854 995.861 21.4854C995.41 21.4854 995.032 21.5993 994.727 21.8271C994.421 22.055 994.269 22.3307 994.269 22.6543H992.997C992.997 22.2852 993.127 21.9297 993.387 21.5879C993.651 21.2415 994.007 20.9681 994.453 20.7676C994.904 20.5671 995.399 20.4668 995.937 20.4668C996.789 20.4668 997.456 20.681 997.939 21.1094C998.423 21.5332 998.673 22.1188 998.691 22.8662V26.2705C998.691 26.9495 998.778 27.4896 998.951 27.8906V28H997.625ZM995.526 27.0361C995.923 27.0361 996.299 26.9336 996.654 26.7285C997.01 26.5234 997.267 26.2568 997.427 25.9287V24.4111H996.436C994.886 24.4111 994.111 24.8646 994.111 25.7715C994.111 26.168 994.243 26.4779 994.508 26.7012C994.772 26.9245 995.112 27.0361 995.526 27.0361ZM1006.06 21.6289H1003.58V28H1002.31V21.6289H999.881V20.6035H1006.06V21.6289ZM1013.33 28H1012.07V24.8418H1008.67V28H1007.4V20.6035H1008.67V23.8096H1012.07V20.6035H1013.33V28ZM1016.75 23.1533H1018.67C1019.51 23.1624 1020.17 23.3812 1020.66 23.8096C1021.15 24.238 1021.39 24.819 1021.39 25.5527C1021.39 26.291 1021.14 26.8835 1020.64 27.3301C1020.14 27.7767 1019.47 28 1018.62 28H1015.49V20.6035H1016.75V23.1533ZM1024.03 28H1022.76V20.6035H1024.03V28ZM1016.75 24.1855V26.9678H1018.63C1019.11 26.9678 1019.47 26.847 1019.73 26.6055C1019.99 26.3594 1020.12 26.0244 1020.12 25.6006C1020.12 25.1904 1019.99 24.8555 1019.74 24.5957C1019.49 24.3314 1019.14 24.1947 1018.68 24.1855H1016.75ZM1031.03 20.6035H1032.29V28H1031.03V22.6064L1027.61 28H1026.35V20.6035H1027.61V26.0039L1031.03 20.6035ZM1031.37 17.9102C1031.37 18.4616 1031.18 18.9059 1030.8 19.2432C1030.43 19.5758 1029.93 19.7422 1029.32 19.7422C1028.71 19.7422 1028.22 19.5736 1027.84 19.2363C1027.46 18.8991 1027.27 18.457 1027.27 17.9102H1028.3C1028.3 18.2292 1028.39 18.4798 1028.56 18.6621C1028.74 18.8398 1028.99 18.9287 1029.32 18.9287C1029.64 18.9287 1029.89 18.8398 1030.07 18.6621C1030.25 18.4844 1030.34 18.2337 1030.34 17.9102H1031.37ZM1041.86 22.627C1041.86 22.2806 1041.73 22.0072 1041.46 21.8066C1041.2 21.6016 1040.84 21.499 1040.38 21.499C1039.93 21.499 1039.56 21.6152 1039.26 21.8477C1038.96 22.0801 1038.81 22.3535 1038.81 22.668H1037.55C1037.55 22.0254 1037.82 21.499 1038.36 21.0889C1038.9 20.6787 1039.57 20.4736 1040.38 20.4736C1041.24 20.4736 1041.92 20.6605 1042.4 21.0342C1042.88 21.4033 1043.12 21.932 1043.12 22.6201C1043.12 22.9528 1043.02 23.2581 1042.82 23.5361C1042.62 23.8141 1042.34 24.0352 1041.97 24.1992C1042.83 24.4909 1043.26 25.0651 1043.26 25.9219C1043.26 26.6009 1043 27.1387 1042.48 27.5352C1041.95 27.9316 1041.25 28.1299 1040.38 28.1299C1039.52 28.1299 1038.82 27.9225 1038.26 27.5078C1037.71 27.0885 1037.44 26.5234 1037.44 25.8125H1038.7C1038.7 26.1725 1038.85 26.4824 1039.17 26.7422C1039.5 26.9974 1039.9 27.125 1040.38 27.125C1040.86 27.125 1041.25 27.0133 1041.55 26.79C1041.84 26.5667 1041.99 26.2773 1041.99 25.9219C1041.99 25.5072 1041.86 25.2109 1041.61 25.0332C1041.37 24.8509 1040.98 24.7598 1040.46 24.7598H1039.19V23.6934H1040.57C1041.43 23.6706 1041.86 23.3151 1041.86 22.627ZM1045.02 28V20.6035H1047.9C1048.89 20.6035 1049.64 20.7767 1050.17 21.123C1050.69 21.4648 1050.96 21.9684 1050.96 22.6338C1050.96 22.9756 1050.86 23.2855 1050.65 23.5635C1050.45 23.8369 1050.14 24.0465 1049.74 24.1924C1050.19 24.2972 1050.55 24.5023 1050.82 24.8076C1051.09 25.113 1051.23 25.4775 1051.23 25.9014C1051.23 26.5804 1050.97 27.0999 1050.47 27.46C1049.98 27.82 1049.27 28 1048.36 28H1045.02ZM1046.28 24.7529V26.9814H1048.38C1048.9 26.9814 1049.3 26.8835 1049.56 26.6875C1049.82 26.4915 1049.95 26.2158 1049.95 25.8604C1049.95 25.1221 1049.41 24.7529 1048.33 24.7529H1046.28ZM1046.28 23.7412H1047.92C1049.1 23.7412 1049.69 23.3949 1049.69 22.7021C1049.69 22.0094 1049.13 21.6517 1048.01 21.6289H1046.28V23.7412ZM1052.57 24.2334C1052.57 23.5088 1052.71 22.8571 1052.99 22.2783C1053.28 21.6995 1053.67 21.2529 1054.18 20.9385C1054.69 20.624 1055.27 20.4668 1055.92 20.4668C1056.93 20.4668 1057.74 20.8154 1058.36 21.5127C1058.99 22.21 1059.3 23.1374 1059.3 24.2949V24.3838C1059.3 25.1038 1059.16 25.751 1058.88 26.3252C1058.61 26.8949 1058.21 27.3392 1057.7 27.6582C1057.19 27.9772 1056.6 28.1367 1055.94 28.1367C1054.93 28.1367 1054.12 27.7881 1053.5 27.0908C1052.88 26.3936 1052.57 25.4707 1052.57 24.3223V24.2334ZM1053.84 24.3838C1053.84 25.2041 1054.03 25.8626 1054.4 26.3594C1054.79 26.8561 1055.3 27.1045 1055.94 27.1045C1056.58 27.1045 1057.09 26.8538 1057.47 26.3525C1057.85 25.8467 1058.03 25.1403 1058.03 24.2334C1058.03 23.4222 1057.84 22.766 1057.45 22.2646C1057.07 21.7588 1056.56 21.5059 1055.92 21.5059C1055.3 21.5059 1054.79 21.7542 1054.41 22.251C1054.03 22.7477 1053.84 23.4587 1053.84 24.3838ZM1066.93 28H1065.66V24.8418H1062.27V28H1060.99V20.6035H1062.27V23.8096H1065.66V20.6035H1066.93V28ZM1068.63 24.2334C1068.63 23.5088 1068.77 22.8571 1069.05 22.2783C1069.34 21.6995 1069.74 21.2529 1070.24 20.9385C1070.75 20.624 1071.33 20.4668 1071.99 20.4668C1072.99 20.4668 1073.81 20.8154 1074.43 21.5127C1075.05 22.21 1075.36 23.1374 1075.36 24.2949V24.3838C1075.36 25.1038 1075.22 25.751 1074.95 26.3252C1074.67 26.8949 1074.28 27.3392 1073.76 27.6582C1073.25 27.9772 1072.67 28.1367 1072 28.1367C1071 28.1367 1070.18 27.7881 1069.56 27.0908C1068.94 26.3936 1068.63 25.4707 1068.63 24.3223V24.2334ZM1069.9 24.3838C1069.9 25.2041 1070.09 25.8626 1070.47 26.3594C1070.85 26.8561 1071.36 27.1045 1072 27.1045C1072.64 27.1045 1073.15 26.8538 1073.53 26.3525C1073.91 25.8467 1074.1 25.1403 1074.1 24.2334C1074.1 23.4222 1073.9 22.766 1073.52 22.2646C1073.13 21.7588 1072.62 21.5059 1071.99 21.5059C1071.36 21.5059 1070.86 21.7542 1070.48 22.251C1070.09 22.7477 1069.9 23.4587 1069.9 24.3838ZM1079.25 24.8486H1078.33V28H1077.06V20.6035H1078.33V23.7344H1079.16L1081.65 20.6035H1083.18L1080.25 24.1582L1083.42 28H1081.82L1079.25 24.8486Z" fill="black"/>
<path d="M780.844 19.5938C780.844 20.1615 780.693 20.6667 780.391 21.1094C780.094 21.5521 779.69 21.8984 779.18 22.1484C779.773 22.4036 780.242 22.776 780.586 23.2656C780.935 23.7552 781.109 24.3099 781.109 24.9297C781.109 25.9141 780.776 26.6979 780.109 27.2812C779.448 27.8646 778.576 28.1562 777.492 28.1562C776.398 28.1562 775.521 27.8646 774.859 27.2812C774.203 26.6927 773.875 25.9089 773.875 24.9297C773.875 24.3151 774.042 23.7604 774.375 23.2656C774.714 22.7708 775.18 22.3958 775.773 22.1406C775.268 21.8906 774.87 21.5443 774.578 21.1016C774.286 20.6589 774.141 20.1562 774.141 19.5938C774.141 18.6354 774.448 17.875 775.062 17.3125C775.677 16.75 776.487 16.4688 777.492 16.4688C778.492 16.4688 779.299 16.75 779.914 17.3125C780.534 17.875 780.844 18.6354 780.844 19.5938ZM779.664 24.8984C779.664 24.263 779.461 23.7448 779.055 23.3438C778.654 22.9427 778.128 22.7422 777.477 22.7422C776.826 22.7422 776.302 22.9401 775.906 23.3359C775.516 23.7318 775.32 24.2526 775.32 24.8984C775.32 25.5443 775.51 26.0521 775.891 26.4219C776.276 26.7917 776.81 26.9766 777.492 26.9766C778.169 26.9766 778.701 26.7917 779.086 26.4219C779.471 26.0469 779.664 25.5391 779.664 24.8984ZM777.492 17.6562C776.924 17.6562 776.464 17.8333 776.109 18.1875C775.76 18.5365 775.586 19.013 775.586 19.6172C775.586 20.1953 775.758 20.6641 776.102 21.0234C776.451 21.3776 776.914 21.5547 777.492 21.5547C778.07 21.5547 778.531 21.3776 778.875 21.0234C779.224 20.6641 779.398 20.1953 779.398 19.6172C779.398 19.0391 779.219 18.5677 778.859 18.2031C778.5 17.8385 778.044 17.6562 777.492 17.6562ZM786.992 23.3828C786.992 22.2057 787.148 21.0755 787.461 19.9922C787.779 18.9089 788.25 17.9245 788.875 17.0391C789.5 16.1536 790.148 15.5286 790.82 15.1641L791.117 16.1172C790.357 16.7005 789.732 17.5911 789.242 18.7891C788.758 19.987 788.492 21.3281 788.445 22.8125L788.438 23.4766C788.438 25.487 788.805 27.2318 789.539 28.7109C789.982 29.5964 790.508 30.2891 791.117 30.7891L790.82 31.6719C790.128 31.2865 789.466 30.6406 788.836 29.7344C787.607 27.9635 786.992 25.8464 786.992 23.3828ZM799.266 19.5938C799.266 20.1615 799.115 20.6667 798.812 21.1094C798.516 21.5521 798.112 21.8984 797.602 22.1484C798.195 22.4036 798.664 22.776 799.008 23.2656C799.357 23.7552 799.531 24.3099 799.531 24.9297C799.531 25.9141 799.198 26.6979 798.531 27.2812C797.87 27.8646 796.997 28.1562 795.914 28.1562C794.82 28.1562 793.943 27.8646 793.281 27.2812C792.625 26.6927 792.297 25.9089 792.297 24.9297C792.297 24.3151 792.464 23.7604 792.797 23.2656C793.135 22.7708 793.602 22.3958 794.195 22.1406C793.69 21.8906 793.292 21.5443 793 21.1016C792.708 20.6589 792.562 20.1562 792.562 19.5938C792.562 18.6354 792.87 17.875 793.484 17.3125C794.099 16.75 794.909 16.4688 795.914 16.4688C796.914 16.4688 797.721 16.75 798.336 17.3125C798.956 17.875 799.266 18.6354 799.266 19.5938ZM798.086 24.8984C798.086 24.263 797.883 23.7448 797.477 23.3438C797.076 22.9427 796.549 22.7422 795.898 22.7422C795.247 22.7422 794.724 22.9401 794.328 23.3359C793.938 23.7318 793.742 24.2526 793.742 24.8984C793.742 25.5443 793.932 26.0521 794.312 26.4219C794.698 26.7917 795.232 26.9766 795.914 26.9766C796.591 26.9766 797.122 26.7917 797.508 26.4219C797.893 26.0469 798.086 25.5391 798.086 24.8984ZM795.914 17.6562C795.346 17.6562 794.885 17.8333 794.531 18.1875C794.182 18.5365 794.008 19.013 794.008 19.6172C794.008 20.1953 794.18 20.6641 794.523 21.0234C794.872 21.3776 795.336 21.5547 795.914 21.5547C796.492 21.5547 796.953 21.3776 797.297 21.0234C797.646 20.6641 797.82 20.1953 797.82 19.6172C797.82 19.0391 797.641 18.5677 797.281 18.2031C796.922 17.8385 796.466 17.6562 795.914 17.6562ZM806.102 28H804.648V18.3672L801.734 19.4375V18.125L805.875 16.5703H806.102V28ZM817.789 28H810.336V26.9609L814.273 22.5859C814.857 21.9245 815.258 21.388 815.477 20.9766C815.701 20.5599 815.812 20.1302 815.812 19.6875C815.812 19.0938 815.633 18.6068 815.273 18.2266C814.914 17.8464 814.435 17.6562 813.836 17.6562C813.117 17.6562 812.557 17.862 812.156 18.2734C811.76 18.6797 811.562 19.2474 811.562 19.9766H810.117C810.117 18.9297 810.453 18.0833 811.125 17.4375C811.802 16.7917 812.706 16.4688 813.836 16.4688C814.893 16.4688 815.729 16.7474 816.344 17.3047C816.958 17.8568 817.266 18.5938 817.266 19.5156C817.266 20.6354 816.552 21.9688 815.125 23.5156L812.078 26.8203H817.789V28ZM822.805 23.4609C822.805 24.6224 822.651 25.737 822.344 26.8047C822.042 27.8672 821.576 28.849 820.945 29.75C820.32 30.651 819.664 31.2917 818.977 31.6719L818.672 30.7891C819.474 30.1745 820.117 29.2214 820.602 27.9297C821.091 26.6328 821.341 25.1953 821.352 23.6172V23.3672C821.352 22.2734 821.237 21.2578 821.008 20.3203C820.779 19.3776 820.458 18.5339 820.047 17.7891C819.641 17.0443 819.182 16.4635 818.672 16.0469L818.977 15.1641C819.664 15.5443 820.318 16.1797 820.938 17.0703C821.562 17.9609 822.029 18.9427 822.336 20.0156C822.648 21.0885 822.805 22.237 822.805 23.4609ZM833.602 28H832.148V18.3672L829.234 19.4375V18.125L833.375 16.5703H833.602V28ZM845.289 28H837.836V26.9609L841.773 22.5859C842.357 21.9245 842.758 21.388 842.977 20.9766C843.201 20.5599 843.312 20.1302 843.312 19.6875C843.312 19.0938 843.133 18.6068 842.773 18.2266C842.414 17.8464 841.935 17.6562 841.336 17.6562C840.617 17.6562 840.057 17.862 839.656 18.2734C839.26 18.6797 839.062 19.2474 839.062 19.9766H837.617C837.617 18.9297 837.953 18.0833 838.625 17.4375C839.302 16.7917 840.206 16.4688 841.336 16.4688C842.393 16.4688 843.229 16.7474 843.844 17.3047C844.458 17.8568 844.766 18.5938 844.766 19.5156C844.766 20.6354 844.052 21.9688 842.625 23.5156L839.578 26.8203H845.289V28ZM848.922 21.6094H850.008C850.69 21.599 851.227 21.4193 851.617 21.0703C852.008 20.7214 852.203 20.25 852.203 19.6562C852.203 18.3229 851.539 17.6562 850.211 17.6562C849.586 17.6562 849.086 17.8359 848.711 18.1953C848.341 18.5495 848.156 19.0208 848.156 19.6094H846.711C846.711 18.7083 847.039 17.9609 847.695 17.3672C848.357 16.7682 849.195 16.4688 850.211 16.4688C851.284 16.4688 852.125 16.7526 852.734 17.3203C853.344 17.888 853.648 18.6771 853.648 19.6875C853.648 20.1823 853.487 20.6615 853.164 21.125C852.846 21.5885 852.411 21.9349 851.859 22.1641C852.484 22.362 852.966 22.6901 853.305 23.1484C853.648 23.6068 853.82 24.1667 853.82 24.8281C853.82 25.849 853.487 26.6589 852.82 27.2578C852.154 27.8568 851.286 28.1562 850.219 28.1562C849.151 28.1562 848.281 27.8672 847.609 27.2891C846.943 26.7109 846.609 25.9479 846.609 25H848.062C848.062 25.599 848.258 26.0781 848.648 26.4375C849.039 26.7969 849.562 26.9766 850.219 26.9766C850.917 26.9766 851.451 26.7943 851.82 26.4297C852.19 26.0651 852.375 25.5417 852.375 24.8594C852.375 24.1979 852.172 23.6901 851.766 23.3359C851.359 22.9818 850.773 22.7995 850.008 22.7891H848.922V21.6094ZM858.961 23.7578H855.148V22.5781H858.961V23.7578ZM866.328 24.1797H867.906V25.3594H866.328V28H864.875V25.3594H859.695V24.5078L864.789 16.625H866.328V24.1797ZM861.336 24.1797H864.875V18.6016L864.703 18.9141L861.336 24.1797ZM869.875 22.2969L870.453 16.625H876.281V17.9609H871.68L871.336 21.0625C871.893 20.7344 872.526 20.5703 873.234 20.5703C874.271 20.5703 875.094 20.9141 875.703 21.6016C876.312 22.2839 876.617 23.2083 876.617 24.375C876.617 25.5469 876.299 26.4714 875.664 27.1484C875.034 27.8203 874.151 28.1562 873.016 28.1562C872.01 28.1562 871.19 27.8776 870.555 27.3203C869.919 26.763 869.557 25.9922 869.469 25.0078H870.836C870.924 25.6589 871.156 26.151 871.531 26.4844C871.906 26.8125 872.401 26.9766 873.016 26.9766C873.688 26.9766 874.214 26.7474 874.594 26.2891C874.979 25.8307 875.172 25.1979 875.172 24.3906C875.172 23.6302 874.964 23.0208 874.547 22.5625C874.135 22.099 873.586 21.8672 872.898 21.8672C872.268 21.8672 871.773 22.0052 871.414 22.2812L871.031 22.5938L869.875 22.2969ZM881.352 23.7578H877.539V22.5781H881.352V23.7578ZM888.289 16.6172V17.8438H888.023C886.898 17.8646 886.003 18.1979 885.336 18.8438C884.669 19.4896 884.284 20.3984 884.18 21.5703C884.779 20.8828 885.596 20.5391 886.633 20.5391C887.622 20.5391 888.411 20.888 889 21.5859C889.594 22.2839 889.891 23.1849 889.891 24.2891C889.891 25.4609 889.57 26.3984 888.93 27.1016C888.294 27.8047 887.44 28.1562 886.367 28.1562C885.279 28.1562 884.396 27.7396 883.719 26.9062C883.042 26.0677 882.703 24.9896 882.703 23.6719V23.1172C882.703 21.0234 883.148 19.4245 884.039 18.3203C884.935 17.2109 886.266 16.6432 888.031 16.6172H888.289ZM886.391 21.7422C885.896 21.7422 885.44 21.8906 885.023 22.1875C884.607 22.4844 884.318 22.8568 884.156 23.3047V23.8359C884.156 24.7734 884.367 25.5286 884.789 26.1016C885.211 26.6745 885.737 26.9609 886.367 26.9609C887.018 26.9609 887.529 26.7214 887.898 26.2422C888.273 25.763 888.461 25.1354 888.461 24.3594C888.461 23.5781 888.271 22.9479 887.891 22.4688C887.516 21.9844 887.016 21.7422 886.391 21.7422ZM898.945 17.4375L894.234 28H892.719L897.414 17.8125H891.258V16.625H898.945V17.4375Z" fill="black"/>
<path d="M445.983 28H444.712V19.5713L442.162 20.5078V19.3594L445.785 17.999H445.983V28ZM454.535 23.625C454.271 23.9395 453.954 24.1924 453.585 24.3838C453.22 24.5752 452.819 24.6709 452.382 24.6709C451.808 24.6709 451.306 24.5296 450.878 24.2471C450.454 23.9645 450.126 23.568 449.894 23.0576C449.661 22.5426 449.545 21.9753 449.545 21.3555C449.545 20.6901 449.67 20.0908 449.921 19.5576C450.176 19.0244 450.536 18.6165 451.001 18.334C451.466 18.0514 452.008 17.9102 452.628 17.9102C453.612 17.9102 454.387 18.2793 454.952 19.0176C455.522 19.7513 455.807 20.7539 455.807 22.0254V22.3945C455.807 24.3314 455.424 25.7464 454.658 26.6396C453.893 27.5283 452.737 27.984 451.192 28.0068H450.946V26.9404H451.213C452.257 26.9222 453.059 26.651 453.619 26.127C454.18 25.5983 454.485 24.7643 454.535 23.625ZM452.587 23.625C453.011 23.625 453.4 23.4951 453.756 23.2354C454.116 22.9756 454.378 22.6543 454.542 22.2715V21.7656C454.542 20.9362 454.362 20.2617 454.002 19.7422C453.642 19.2227 453.186 18.9629 452.635 18.9629C452.079 18.9629 451.632 19.1771 451.295 19.6055C450.958 20.0293 450.789 20.5898 450.789 21.2871C450.789 21.9661 450.951 22.5267 451.274 22.9688C451.603 23.4062 452.04 23.625 452.587 23.625ZM463.586 20.6445C463.586 21.1413 463.454 21.5833 463.189 21.9707C462.93 22.3581 462.576 22.6611 462.13 22.8799C462.649 23.1032 463.06 23.429 463.36 23.8574C463.666 24.2858 463.818 24.7712 463.818 25.3135C463.818 26.1748 463.527 26.8607 462.943 27.3711C462.365 27.8815 461.601 28.1367 460.653 28.1367C459.696 28.1367 458.928 27.8815 458.35 27.3711C457.775 26.8561 457.488 26.1702 457.488 25.3135C457.488 24.7757 457.634 24.2904 457.926 23.8574C458.222 23.4245 458.63 23.0964 459.149 22.873C458.707 22.6543 458.359 22.3512 458.104 21.9639C457.848 21.5765 457.721 21.1367 457.721 20.6445C457.721 19.806 457.99 19.1406 458.527 18.6484C459.065 18.1562 459.774 17.9102 460.653 17.9102C461.528 17.9102 462.235 18.1562 462.772 18.6484C463.315 19.1406 463.586 19.806 463.586 20.6445ZM462.554 25.2861C462.554 24.7301 462.376 24.2767 462.021 23.9258C461.67 23.5749 461.209 23.3994 460.64 23.3994C460.07 23.3994 459.612 23.5726 459.266 23.9189C458.924 24.2653 458.753 24.721 458.753 25.2861C458.753 25.8512 458.919 26.2956 459.252 26.6191C459.589 26.9427 460.056 27.1045 460.653 27.1045C461.246 27.1045 461.711 26.9427 462.048 26.6191C462.385 26.291 462.554 25.8467 462.554 25.2861ZM460.653 18.9492C460.157 18.9492 459.753 19.1042 459.443 19.4141C459.138 19.7194 458.985 20.1364 458.985 20.665C458.985 21.1709 459.136 21.5811 459.437 21.8955C459.742 22.2054 460.147 22.3604 460.653 22.3604C461.159 22.3604 461.562 22.2054 461.863 21.8955C462.169 21.5811 462.321 21.1709 462.321 20.665C462.321 20.1592 462.164 19.7467 461.85 19.4277C461.535 19.1087 461.136 18.9492 460.653 18.9492ZM465.992 23.0098L466.498 18.0469H471.598V19.2158H467.571L467.271 21.9297C467.758 21.6426 468.312 21.499 468.932 21.499C469.839 21.499 470.559 21.7998 471.092 22.4014C471.625 22.9984 471.892 23.8073 471.892 24.8281C471.892 25.8535 471.614 26.6624 471.058 27.2549C470.506 27.8428 469.734 28.1367 468.74 28.1367C467.861 28.1367 467.143 27.8929 466.587 27.4053C466.031 26.9176 465.714 26.2432 465.637 25.3818H466.833C466.91 25.9515 467.113 26.3822 467.441 26.6738C467.77 26.9609 468.202 27.1045 468.74 27.1045C469.328 27.1045 469.788 26.904 470.121 26.5029C470.458 26.1019 470.627 25.5482 470.627 24.8418C470.627 24.1764 470.445 23.6432 470.08 23.2422C469.72 22.8366 469.239 22.6338 468.638 22.6338C468.086 22.6338 467.653 22.7546 467.339 22.9961L467.004 23.2695L465.992 23.0098ZM473.854 23.0098L474.359 18.0469H479.459V19.2158H475.433L475.132 21.9297C475.619 21.6426 476.173 21.499 476.793 21.499C477.7 21.499 478.42 21.7998 478.953 22.4014C479.486 22.9984 479.753 23.8073 479.753 24.8281C479.753 25.8535 479.475 26.6624 478.919 27.2549C478.368 27.8428 477.595 28.1367 476.602 28.1367C475.722 28.1367 475.004 27.8929 474.448 27.4053C473.892 26.9176 473.576 26.2432 473.498 25.3818H474.694C474.772 25.9515 474.975 26.3822 475.303 26.6738C475.631 26.9609 476.064 27.1045 476.602 27.1045C477.189 27.1045 477.65 26.904 477.982 26.5029C478.32 26.1019 478.488 25.5482 478.488 24.8418C478.488 24.1764 478.306 23.6432 477.941 23.2422C477.581 22.8366 477.101 22.6338 476.499 22.6338C475.948 22.6338 475.515 22.7546 475.2 22.9961L474.865 23.2695L473.854 23.0098ZM481.715 23.0098L482.221 18.0469H487.32V19.2158H483.294L482.993 21.9297C483.481 21.6426 484.035 21.499 484.654 21.499C485.561 21.499 486.281 21.7998 486.814 22.4014C487.348 22.9984 487.614 23.8073 487.614 24.8281C487.614 25.8535 487.336 26.6624 486.78 27.2549C486.229 27.8428 485.456 28.1367 484.463 28.1367C483.583 28.1367 482.866 27.8929 482.31 27.4053C481.754 26.9176 481.437 26.2432 481.359 25.3818H482.556C482.633 25.9515 482.836 26.3822 483.164 26.6738C483.492 26.9609 483.925 27.1045 484.463 27.1045C485.051 27.1045 485.511 26.904 485.844 26.5029C486.181 26.1019 486.35 25.5482 486.35 24.8418C486.35 24.1764 486.167 23.6432 485.803 23.2422C485.443 22.8366 484.962 22.6338 484.36 22.6338C483.809 22.6338 483.376 22.7546 483.062 22.9961L482.727 23.2695L481.715 23.0098ZM489.084 29.9824L488.366 29.4902C488.795 28.8932 489.018 28.278 489.036 27.6445V26.5029H490.273V27.4941C490.273 27.9544 490.16 28.4147 489.932 28.875C489.708 29.3353 489.426 29.7044 489.084 29.9824ZM503.193 28H501.874V23.3994H496.856V28H495.544V18.0469H496.856V22.3262H501.874V18.0469H503.193V28ZM508.396 28.1367C507.393 28.1367 506.577 27.8086 505.948 27.1523C505.319 26.4915 505.005 25.6097 505.005 24.5068V24.2744C505.005 23.5407 505.144 22.8867 505.422 22.3125C505.704 21.7337 506.096 21.2826 506.598 20.959C507.104 20.6309 507.65 20.4668 508.238 20.4668C509.2 20.4668 509.947 20.7835 510.48 21.417C511.014 22.0505 511.28 22.9574 511.28 24.1377V24.6641H506.27C506.288 25.3932 506.5 25.9834 506.905 26.4346C507.315 26.8812 507.835 27.1045 508.464 27.1045C508.91 27.1045 509.289 27.0133 509.599 26.8311C509.909 26.6488 510.18 26.4072 510.412 26.1064L511.185 26.708C510.565 27.6605 509.635 28.1367 508.396 28.1367ZM508.238 21.5059C507.728 21.5059 507.299 21.6927 506.953 22.0664C506.607 22.4355 506.393 22.9551 506.311 23.625H510.016V23.5293C509.979 22.8867 509.806 22.39 509.496 22.0391C509.186 21.6836 508.767 21.5059 508.238 21.5059ZM512.866 28V20.6035H515.751C516.735 20.6035 517.49 20.7767 518.014 21.123C518.542 21.4648 518.807 21.9684 518.807 22.6338C518.807 22.9756 518.704 23.2855 518.499 23.5635C518.294 23.8369 517.991 24.0465 517.59 24.1924C518.036 24.2972 518.394 24.5023 518.663 24.8076C518.937 25.113 519.073 25.4775 519.073 25.9014C519.073 26.5804 518.823 27.0999 518.321 27.46C517.825 27.82 517.12 28 516.209 28H512.866ZM514.131 24.7529V26.9814H516.223C516.751 26.9814 517.146 26.8835 517.405 26.6875C517.67 26.4915 517.802 26.2158 517.802 25.8604C517.802 25.1221 517.259 24.7529 516.175 24.7529H514.131ZM514.131 23.7412H515.765C516.95 23.7412 517.542 23.3949 517.542 22.7021C517.542 22.0094 516.981 21.6517 515.86 21.6289H514.131V23.7412ZM523.715 27.1045C524.166 27.1045 524.56 26.9678 524.897 26.6943C525.235 26.4209 525.422 26.0791 525.458 25.6689H526.654C526.632 26.0928 526.486 26.4961 526.217 26.8789C525.948 27.2617 525.588 27.5671 525.137 27.7949C524.69 28.0228 524.216 28.1367 523.715 28.1367C522.708 28.1367 521.906 27.8018 521.309 27.1318C520.716 26.4574 520.42 25.5368 520.42 24.3701V24.1582C520.42 23.4382 520.552 22.7979 520.816 22.2373C521.081 21.6768 521.459 21.2415 521.951 20.9316C522.448 20.6217 523.034 20.4668 523.708 20.4668C524.537 20.4668 525.226 20.7152 525.772 21.2119C526.324 21.7087 526.618 22.3535 526.654 23.1465H525.458C525.422 22.668 525.239 22.276 524.911 21.9707C524.588 21.6608 524.187 21.5059 523.708 21.5059C523.065 21.5059 522.566 21.7383 522.211 22.2031C521.86 22.6634 521.685 23.3311 521.685 24.2061V24.4453C521.685 25.2975 521.86 25.9538 522.211 26.4141C522.562 26.8743 523.063 27.1045 523.715 27.1045ZM530.38 24.8486H529.457V28H528.186V20.6035H529.457V23.7344H530.284L532.772 20.6035H534.304L531.378 24.1582L534.55 28H532.943L530.38 24.8486ZM540.422 20.6035H541.687V28H540.422V22.6064L537.011 28H535.746V20.6035H537.011V26.0039L540.422 20.6035ZM548.502 20.6035H549.767V28H548.502V22.6064L545.091 28H543.826V20.6035H545.091V26.0039L548.502 20.6035ZM548.844 17.9102C548.844 18.4616 548.655 18.9059 548.276 19.2432C547.903 19.5758 547.41 19.7422 546.8 19.7422C546.189 19.7422 545.695 19.5736 545.316 19.2363C544.938 18.8991 544.749 18.457 544.749 17.9102H545.781C545.781 18.2292 545.868 18.4798 546.041 18.6621C546.214 18.8398 546.467 18.9287 546.8 18.9287C547.119 18.9287 547.367 18.8398 547.545 18.6621C547.727 18.4844 547.818 18.2337 547.818 17.9102H548.844ZM561.319 28H560.055V21.6494H556.65V28H555.379V20.6035H561.319V28ZM569.598 24.3838C569.598 25.5094 569.34 26.4163 568.825 27.1045C568.31 27.7926 567.613 28.1367 566.733 28.1367C565.836 28.1367 565.129 27.8519 564.614 27.2822V30.8438H563.35V20.6035H564.505L564.566 21.4238C565.081 20.7858 565.797 20.4668 566.713 20.4668C567.602 20.4668 568.303 20.8018 568.818 21.4717C569.338 22.1416 569.598 23.0736 569.598 24.2676V24.3838ZM568.333 24.2402C568.333 23.4062 568.155 22.7477 567.8 22.2646C567.444 21.7816 566.957 21.54 566.337 21.54C565.571 21.54 564.997 21.8796 564.614 22.5586V26.0928C564.993 26.7673 565.571 27.1045 566.351 27.1045C566.957 27.1045 567.438 26.8652 567.793 26.3867C568.153 25.9036 568.333 25.1882 568.333 24.2402ZM571.238 27.3369C571.238 27.1182 571.302 26.9359 571.43 26.79C571.562 26.6442 571.758 26.5713 572.018 26.5713C572.277 26.5713 572.473 26.6442 572.605 26.79C572.742 26.9359 572.811 27.1182 572.811 27.3369C572.811 27.5465 572.742 27.722 572.605 27.8633C572.473 28.0046 572.277 28.0752 572.018 28.0752C571.758 28.0752 571.562 28.0046 571.43 27.8633C571.302 27.722 571.238 27.5465 571.238 27.3369ZM582.401 28H581.13V19.5713L578.58 20.5078V19.3594L582.203 17.999H582.401V28ZM591.445 24.6572H592.826V25.6895H591.445V28H590.174V25.6895H585.642V24.9443L590.099 18.0469H591.445V24.6572ZM587.077 24.6572H590.174V19.7764L590.023 20.0498L587.077 24.6572ZM600.209 23.7549C600.209 25.236 599.956 26.3366 599.45 27.0566C598.944 27.7767 598.154 28.1367 597.078 28.1367C596.016 28.1367 595.23 27.7858 594.72 27.084C594.209 26.3776 593.945 25.3249 593.927 23.9258V22.2373C593.927 20.7744 594.18 19.6875 594.686 18.9766C595.191 18.2656 595.984 17.9102 597.064 17.9102C598.135 17.9102 598.924 18.2542 599.43 18.9424C599.936 19.626 600.195 20.6833 600.209 22.1143V23.7549ZM598.944 22.0254C598.944 20.9544 598.794 20.1751 598.493 19.6875C598.192 19.1953 597.716 18.9492 597.064 18.9492C596.417 18.9492 595.946 19.193 595.649 19.6807C595.353 20.1683 595.201 20.918 595.191 21.9297V23.9531C595.191 25.0286 595.346 25.8239 595.656 26.3389C595.971 26.8493 596.445 27.1045 597.078 27.1045C597.702 27.1045 598.165 26.863 598.466 26.3799C598.771 25.8968 598.931 25.1357 598.944 24.0967V22.0254ZM601.918 29.9824L601.2 29.4902C601.629 28.8932 601.852 28.278 601.87 27.6445V26.5029H603.107V27.4941C603.107 27.9544 602.993 28.4147 602.766 28.875C602.542 29.3353 602.26 29.7044 601.918 29.9824ZM607.845 24.2334C607.845 23.5088 607.986 22.8571 608.269 22.2783C608.556 21.6995 608.952 21.2529 609.458 20.9385C609.968 20.624 610.549 20.4668 611.201 20.4668C612.208 20.4668 613.022 20.8154 613.642 21.5127C614.266 22.21 614.578 23.1374 614.578 24.2949V24.3838C614.578 25.1038 614.439 25.751 614.161 26.3252C613.888 26.8949 613.493 27.3392 612.979 27.6582C612.468 27.9772 611.88 28.1367 611.215 28.1367C610.212 28.1367 609.399 27.7881 608.774 27.0908C608.155 26.3936 607.845 25.4707 607.845 24.3223V24.2334ZM609.116 24.3838C609.116 25.2041 609.305 25.8626 609.684 26.3594C610.066 26.8561 610.577 27.1045 611.215 27.1045C611.857 27.1045 612.368 26.8538 612.746 26.3525C613.124 25.8467 613.313 25.1403 613.313 24.2334C613.313 23.4222 613.12 22.766 612.732 22.2646C612.35 21.7588 611.839 21.5059 611.201 21.5059C610.577 21.5059 610.073 21.7542 609.69 22.251C609.308 22.7477 609.116 23.4587 609.116 24.3838ZM615.891 24.4385C615.891 23.2035 616.13 22.2327 616.608 21.5264C617.087 20.82 617.743 20.4668 618.577 20.4668C618.965 20.4668 619.304 20.5329 619.596 20.665V17.5H620.86V20.7061C621.179 20.5465 621.553 20.4668 621.981 20.4668C622.82 20.4668 623.479 20.82 623.957 21.5264C624.436 22.2327 624.675 23.2513 624.675 24.582C624.675 25.6712 624.436 26.5371 623.957 27.1797C623.483 27.8223 622.829 28.1436 621.995 28.1436C621.553 28.1436 621.175 28.0706 620.86 27.9248V30.8438H619.596V27.9453C619.295 28.0775 618.951 28.1436 618.563 28.1436C617.734 28.1436 617.08 27.8223 616.602 27.1797C616.128 26.5371 615.891 25.6576 615.891 24.541V24.4385ZM623.41 24.4385C623.41 23.5088 623.251 22.7887 622.932 22.2783C622.613 21.7633 622.173 21.5059 621.612 21.5059C621.325 21.5059 621.075 21.5514 620.86 21.6426V26.9951C621.065 27.0726 621.321 27.1113 621.626 27.1113C622.191 27.1113 622.629 26.8926 622.938 26.4551C623.253 26.0176 623.41 25.3454 623.41 24.4385ZM617.155 24.582C617.155 25.4115 617.303 26.0404 617.6 26.4688C617.896 26.8971 618.322 27.1113 618.878 27.1113C619.142 27.1113 619.382 27.0703 619.596 26.9883V21.6221C619.404 21.5446 619.17 21.5059 618.892 21.5059C618.336 21.5059 617.907 21.7542 617.606 22.251C617.306 22.7477 617.155 23.5247 617.155 24.582ZM631.107 20.6035H632.372V28H631.107V22.6064L627.696 28H626.432V20.6035H627.696V26.0039L631.107 20.6035ZM637.369 27.1045C637.82 27.1045 638.215 26.9678 638.552 26.6943C638.889 26.4209 639.076 26.0791 639.112 25.6689H640.309C640.286 26.0928 640.14 26.4961 639.871 26.8789C639.602 27.2617 639.242 27.5671 638.791 27.7949C638.344 28.0228 637.87 28.1367 637.369 28.1367C636.362 28.1367 635.56 27.8018 634.963 27.1318C634.37 26.4574 634.074 25.5368 634.074 24.3701V24.1582C634.074 23.4382 634.206 22.7979 634.471 22.2373C634.735 21.6768 635.113 21.2415 635.605 20.9316C636.102 20.6217 636.688 20.4668 637.362 20.4668C638.192 20.4668 638.88 20.7152 639.427 21.2119C639.978 21.7087 640.272 22.3535 640.309 23.1465H639.112C639.076 22.668 638.894 22.276 638.565 21.9707C638.242 21.6608 637.841 21.5059 637.362 21.5059C636.72 21.5059 636.221 21.7383 635.865 22.2031C635.514 22.6634 635.339 23.3311 635.339 24.2061V24.4453C635.339 25.2975 635.514 25.9538 635.865 26.4141C636.216 26.8743 636.717 27.1045 637.369 27.1045ZM649.229 28H647.958V19.5713L645.408 20.5078V19.3594L649.031 17.999H649.229V28ZM658.273 24.6572H659.654V25.6895H658.273V28H657.002V25.6895H652.47V24.9443L656.927 18.0469H658.273V24.6572ZM653.905 24.6572H657.002V19.7764L656.852 20.0498L653.905 24.6572ZM667.037 23.7549C667.037 25.236 666.784 26.3366 666.278 27.0566C665.772 27.7767 664.982 28.1367 663.906 28.1367C662.844 28.1367 662.058 27.7858 661.548 27.084C661.037 26.3776 660.773 25.3249 660.755 23.9258V22.2373C660.755 20.7744 661.008 19.6875 661.514 18.9766C662.02 18.2656 662.812 17.9102 663.893 17.9102C664.964 17.9102 665.752 18.2542 666.258 18.9424C666.764 19.626 667.023 20.6833 667.037 22.1143V23.7549ZM665.772 22.0254C665.772 20.9544 665.622 20.1751 665.321 19.6875C665.021 19.1953 664.544 18.9492 663.893 18.9492C663.245 18.9492 662.774 19.193 662.478 19.6807C662.181 20.1683 662.029 20.918 662.02 21.9297V23.9531C662.02 25.0286 662.174 25.8239 662.484 26.3389C662.799 26.8493 663.273 27.1045 663.906 27.1045C664.531 27.1045 664.993 26.863 665.294 26.3799C665.599 25.8968 665.759 25.1357 665.772 24.0967V22.0254Z" fill="black"/>
<circle cx="22.5" cy="22.5" r="21.5" fill="white" stroke="#66C05D" stroke-width="2"/>
<circle cx="87.5" cy="22.5" r="21.5" fill="white" stroke="#66C05D" stroke-width="2"/>
<circle cx="152.5" cy="22.5" r="21.5" fill="white" stroke="#66C05D" stroke-width="2"/>
<circle cx="213.5" cy="22.5" r="21.5" fill="white" stroke="#66C05D" stroke-width="2"/>
<path d="M156.999 13.0042L154.406 13C151.492 13 149.609 14.9319 149.609 17.922V20.1914H147.001C146.776 20.1914 146.594 20.3741 146.594 20.5994V23.8875C146.594 24.1128 146.776 24.2953 147.001 24.2953H149.609V32.5922C149.609 32.8175 149.792 33 150.017 33H153.419C153.644 33 153.827 32.8173 153.827 32.5922V24.2953H156.876C157.101 24.2953 157.284 24.1128 157.284 23.8875L157.285 20.5994C157.285 20.4912 157.242 20.3876 157.166 20.311C157.089 20.2345 156.985 20.1914 156.877 20.1914H153.827V18.2676C153.827 17.343 154.047 16.8736 155.252 16.8736L156.999 16.873C157.224 16.873 157.407 16.6903 157.407 16.4651V13.412C157.407 13.1871 157.224 13.0046 156.999 13.0042Z" fill="#66C05D"/>
<g clip-path="url(#clip0_24_35)">
<path d="M217.125 12H208.875C205.079 12 202 15.0786 202 18.875V27.125C202 30.9214 205.079 34 208.875 34H217.125C220.921 34 224 30.9214 224 27.125V18.875C224 15.0786 220.921 12 217.125 12ZM221.938 27.125C221.938 29.7787 219.779 31.9375 217.125 31.9375H208.875C206.221 31.9375 204.062 29.7787 204.062 27.125V18.875C204.062 16.2213 206.221 14.0625 208.875 14.0625H217.125C219.779 14.0625 221.938 16.2213 221.938 18.875V27.125Z" fill="#66C05D"/>
<path d="M213 17.5C209.963 17.5 207.5 19.9626 207.5 23C207.5 26.0374 209.963 28.5 213 28.5C216.037 28.5 218.5 26.0374 218.5 23C218.5 19.9626 216.037 17.5 213 17.5ZM213 26.4375C211.105 26.4375 209.562 24.8948 209.562 23C209.562 21.1039 211.105 19.5625 213 19.5625C214.895 19.5625 216.438 21.1039 216.438 23C216.438 24.8948 214.895 26.4375 213 26.4375Z" fill="#66C05D"/>
<path d="M218.913 17.8204C219.317 17.8204 219.645 17.4923 219.645 17.0876C219.645 16.6828 219.317 16.3547 218.913 16.3547C218.508 16.3547 218.18 16.6828 218.18 17.0876C218.18 17.4923 218.508 17.8204 218.913 17.8204Z" fill="#66C05D"/>
</g>
<path d="M28.4309 15H15.5691C13.0457 15 11 16.9711 11 19.4025V25.5975C11 28.0289 13.0457 30 15.5691 30H28.4309C30.9543 30 33 28.0289 33 25.5975V19.4025C33 16.9711 30.9543 15 28.4309 15ZM25.3408 22.8014L19.325 25.566C19.1647 25.6396 18.9795 25.527 18.9795 25.3559V19.654C18.9795 19.4805 19.1695 19.368 19.3302 19.4464L25.346 22.3838C25.5249 22.4711 25.5218 22.7183 25.3408 22.8014Z" fill="#66C05D"/>
<path d="M100.895 28.5466C100.861 28.478 100.829 28.4211 100.8 28.3755C100.313 27.554 99.3833 26.5456 98.0109 25.3502L97.9819 25.3228L97.9674 25.3094L97.9527 25.2956H97.938C97.3151 24.7389 96.9206 24.3646 96.7554 24.173C96.4532 23.8079 96.3855 23.4384 96.5507 23.064C96.6674 22.7812 97.1057 22.1838 97.8648 21.271C98.264 20.7873 98.5802 20.3997 98.8137 20.1076C100.498 18.0086 101.228 16.6673 101.004 16.0832L100.917 15.9467C100.859 15.8645 100.708 15.7893 100.465 15.7208C100.221 15.6524 99.9096 15.641 99.5299 15.6866L95.3249 15.7139C95.2568 15.6912 95.1595 15.6934 95.0328 15.7208C94.9062 15.7482 94.8429 15.762 94.8429 15.762L94.7697 15.7962L94.7116 15.8374C94.6629 15.8647 94.6094 15.9126 94.5509 15.981C94.4928 16.0492 94.4441 16.1293 94.4053 16.2205C93.9475 17.3248 93.4269 18.3514 92.8428 19.3004C92.4826 19.8663 92.1518 20.3567 91.8497 20.7719C91.548 21.1871 91.2949 21.4929 91.0907 21.6889C90.8861 21.8852 90.7015 22.0424 90.5357 22.1611C90.3702 22.2799 90.2438 22.3301 90.1563 22.3118C90.0686 22.2934 89.986 22.2752 89.9078 22.257C89.7716 22.1748 89.6621 22.063 89.5795 21.9216C89.4965 21.7802 89.4407 21.6022 89.4115 21.3877C89.3824 21.1731 89.3653 20.9885 89.3603 20.8333C89.3558 20.6783 89.3579 20.4591 89.3678 20.1762C89.3779 19.8932 89.3824 19.7017 89.3824 19.6013C89.3824 19.2545 89.3896 18.8781 89.4041 18.472C89.4188 18.0659 89.4308 17.7441 89.4407 17.5071C89.4507 17.2698 89.4553 17.0188 89.4553 16.7541C89.4553 16.4895 89.4381 16.2819 89.4041 16.1313C89.3706 15.9808 89.3191 15.8348 89.2512 15.6932C89.1829 15.5518 89.083 15.4424 88.9519 15.3647C88.8205 15.2871 88.6572 15.2256 88.4628 15.1798C87.9468 15.0704 87.2898 15.0112 86.4915 15.0019C84.681 14.9837 83.5177 15.0933 83.0018 15.3306C82.7974 15.4309 82.6124 15.5678 82.4471 15.7411C82.2718 15.9419 82.2473 16.0515 82.3739 16.0696C82.958 16.1516 83.3715 16.3478 83.6149 16.6581L83.7026 16.8225C83.7708 16.9411 83.8389 17.1511 83.9071 17.4522C83.9752 17.7533 84.0191 18.0863 84.0384 18.4512C84.087 19.1175 84.087 19.6878 84.0384 20.1623C83.9897 20.6369 83.9437 21.0064 83.8998 21.2711C83.8558 21.5358 83.7902 21.7502 83.7026 21.9144C83.6149 22.0787 83.5565 22.1791 83.5273 22.2155C83.4981 22.2519 83.4738 22.2749 83.4544 22.2839C83.3279 22.3294 83.1963 22.3525 83.0601 22.3525C82.9237 22.3525 82.7583 22.2886 82.5637 22.1608C82.3691 22.0329 82.1672 21.8574 81.9578 21.6337C81.7485 21.4101 81.5125 21.0975 81.2495 20.6961C80.9868 20.2946 80.7143 19.8201 80.432 19.2725L80.1984 18.8755C80.0524 18.62 79.8529 18.2481 79.5998 17.7599C79.3466 17.2716 79.1228 16.7993 78.9282 16.343C78.8504 16.1514 78.7335 16.0055 78.5778 15.9051L78.5047 15.8639C78.4561 15.8275 78.3782 15.7888 78.2712 15.7475C78.164 15.7063 78.0522 15.6768 77.9353 15.6586L73.9346 15.6859C73.5258 15.6859 73.2484 15.7727 73.1024 15.9461L73.0439 16.0281C73.0147 16.0738 73 16.1468 73 16.2473C73 16.3476 73.0292 16.4709 73.0877 16.6168C73.6717 17.9036 74.3068 19.1446 74.993 20.3401C75.6792 21.5355 76.2755 22.4985 76.7815 23.2281C77.2877 23.9582 77.8036 24.6473 78.3293 25.2951C78.8549 25.943 79.2029 26.3583 79.3731 26.5407C79.5436 26.7235 79.6775 26.8601 79.7748 26.9513L80.1399 27.2798C80.3735 27.4989 80.7166 27.7612 81.1692 28.0669C81.622 28.3727 82.1232 28.6738 82.6731 28.9706C83.2232 29.267 83.8631 29.5088 84.5933 29.6958C85.3233 29.883 86.0338 29.9582 86.725 29.9219H88.4042C88.7447 29.8944 89.0027 29.794 89.1781 29.6207L89.2362 29.5521C89.2752 29.4976 89.3118 29.413 89.3456 29.2991C89.3797 29.1851 89.3967 29.0594 89.3967 28.9227C89.3867 28.5304 89.4186 28.1768 89.4914 27.862C89.5642 27.5473 89.6471 27.31 89.7399 27.1502C89.8326 26.9906 89.9373 26.8558 90.0537 26.7466C90.1704 26.6372 90.2536 26.5709 90.3024 26.548C90.3508 26.5251 90.3895 26.5095 90.4187 26.5001C90.6524 26.4272 90.9273 26.4978 91.244 26.7125C91.5604 26.9269 91.8571 27.1917 92.1347 27.5064C92.4122 27.8214 92.7455 28.1748 93.1348 28.5672C93.5243 28.9596 93.8649 29.2514 94.1568 29.4433L94.4487 29.6076C94.6437 29.7172 94.8968 29.8176 95.2083 29.9088C95.5193 30 95.7918 30.0228 96.0258 29.9772L99.7635 29.9226C100.133 29.9226 100.421 29.8652 100.625 29.7513C100.829 29.6372 100.951 29.5116 100.99 29.3749C101.029 29.2381 101.031 29.0828 100.997 28.9092C100.963 28.7361 100.929 28.6151 100.895 28.5466Z" fill="#66C05D"/>
<defs>
<clipPath id="clip0_24_35">
<rect width="22" height="22" fill="white" transform="translate(202 12)"/>
</clipPath>
</defs>
</svg>
